<svg width="18" height="24" viewBox="0 0 18 24" fill="none" xmlns="http://www.w3.org/2000/svg">
<path fill-rule="evenodd" clip-rule="evenodd" d="M9 0.00012207C4.02944 0.00012207 0 4.02956 0 9.00012C0 10.3016 0.455035 11.874 1.08883 13.429C1.73249 15.0082 2.60194 16.6679 3.51835 18.1762C4.43373 19.6828 5.41251 21.0655 6.28505 22.0844C6.71908 22.5912 7.14742 23.0323 7.54556 23.3559C7.74451 23.5175 7.95686 23.6671 8.17632 23.7802C8.38481 23.8877 8.67148 24.0001 9 24.0001C9.32852 24.0001 9.61519 23.8877 9.82368 23.7802C10.0431 23.6671 10.2555 23.5175 10.4544 23.3559C10.8526 23.0323 11.2809 22.5912 11.715 22.0844C12.5875 21.0655 13.5663 19.6828 14.4816 18.1762C15.3981 16.6679 16.2675 15.0082 16.9112 13.429C17.545 11.874 18 10.3016 18 9.00012C18 4.02956 13.9706 0.00012207 9 0.00012207ZM2 9.00012C2 5.13413 5.13401 2.00012 9 2.00012C12.866 2.00012 16 5.13413 16 9.00012C16 9.90776 15.664 11.1899 15.0591 12.6741C14.464 14.1341 13.647 15.6983 12.7724 17.1377C11.8968 18.5789 10.9801 19.8677 10.1959 20.7835C9.80151 21.244 9.46115 21.586 9.19319 21.8037C9.11587 21.8665 9.05153 21.9133 9 21.9472C8.94847 21.9133 8.88413 21.8665 8.80681 21.8037C8.53885 21.586 8.19849 21.244 7.80414 20.7835C7.01992 19.8677 6.10321 18.5789 5.22759 17.1377C4.35302 15.6983 3.53597 14.1341 2.9409 12.6741C2.33596 11.1899 2 9.90776 2 9.00012ZM8.87594 22.0169C8.87496 22.0173 8.87446 22.0175 8.87444 22.0176C8.8744 22.0177 8.87613 22.0171 8.87972 22.0156C8.87808 22.0161 8.87682 22.0166 8.87594 22.0169ZM9.12028 22.0156C9.12376 22.0167 9.12555 22.0175 9.12556 22.0176C9.12558 22.0176 9.12384 22.0171 9.12028 22.0156ZM9 6.00012C7.34315 6.00012 6 7.34327 6 9.00012C6 10.657 7.34315 12.0001 9 12.0001C10.6569 12.0001 12 10.657 12 9.00012C12 7.34327 10.6569 6.00012 9 6.00012ZM8 9.00012C8 8.44784 8.44772 8.00012 9 8.00012C9.55228 8.00012 10 8.44784 10 9.00012C10 9.55241 9.55228 10.0001 9 10.0001C8.44772 10.0001 8 9.55241 8 9.00012Z" fill="#13CE95"/>
</svg>
