<svg width="24" height="24" viewBox="0 0 24 24" fill="none" xmlns="http://www.w3.org/2000/svg">
<path fill-rule="evenodd" clip-rule="evenodd" d="M12 24C18.6274 24 24 18.6274 24 12C24 5.37258 18.6274 0 12 0C5.37258 0 0 5.37258 0 12C0 18.6274 5.37258 24 12 24Z" fill="#CCDAEA" fill-opacity="0.5"/>
<path fill-rule="evenodd" clip-rule="evenodd" d="M12.0004 11.7143C13.2627 11.7143 14.2861 10.6909 14.2861 9.42857C14.2861 8.1662 13.2627 7.14285 12.0004 7.14285C10.738 7.14285 9.71465 8.1662 9.71465 9.42857C9.71465 10.6909 10.738 11.7143 12.0004 11.7143ZM16.2861 9.42857C16.2861 11.7955 14.3673 13.7143 12.0004 13.7143C9.63343 13.7143 7.71465 11.7955 7.71465 9.42857C7.71465 7.06163 9.63343 5.14285 12.0004 5.14285C14.3673 5.14285 16.2861 7.06163 16.2861 9.42857Z" fill="#899AAB"/>
<path fill-rule="evenodd" clip-rule="evenodd" d="M12.0004 13.8571C9.9073 13.8571 7.98544 15.2209 6.93559 17.4162C6.69732 17.9145 6.10026 18.1252 5.60201 17.887C5.10377 17.6487 4.89302 17.0516 5.13129 16.5534C6.43892 13.819 8.9782 11.8571 12.0004 11.8571C15.0225 11.8571 17.5618 13.819 18.8694 16.5534C19.1077 17.0516 18.8969 17.6487 18.3987 17.887C17.9005 18.1252 17.3034 17.9145 17.0651 17.4162C16.0153 15.2209 14.0934 13.8571 12.0004 13.8571Z" fill="#899AAB"/>
</svg>
