<svg  viewBox="0 0 19 20" width="19" height="20" fill="#73E3FF" xmlns="http://www.w3.org/2000/svg">
<path fill-rule="evenodd" clip-rule="evenodd"
      d="M13.5 6C13.5 8.20914 11.7091 10 9.5 10C7.29086 10 5.5 8.20914 5.5 6C5.5 3.79086 7.29086 2 9.5 2C11.7091 2 13.5 3.79086 13.5 6ZM13.143 10.7678C14.5759 9.67134 15.5 7.94359 15.5 6C15.5 2.68629 12.8137 0 9.5 0C6.18629 0 3.5 2.68629 3.5 6C3.5 7.94359 4.42413 9.67134 5.85697 10.7678C2.70134 12.1664 0.5 15.3261 0.5 19C0.5 19.5523 0.947715 20 1.5 20C2.05228 20 2.5 19.5523 2.5 19C2.5 15.134 5.63401 12 9.5 12C13.366 12 16.5 15.134 16.5 19C16.5 19.5523 16.9477 20 17.5 20C18.0523 20 18.5 19.5523 18.5 19C18.5 15.3261 16.2987 12.1664 13.143 10.7678Z"
      stroke="none" width="19" height="20" display="initial"
/>
</svg>
