<svg width="24" height="24" viewBox="0 0 24 24" fill="none" xmlns="http://www.w3.org/2000/svg">
<path fill-rule="evenodd" clip-rule="evenodd" d="M12 24C18.6274 24 24 18.6274 24 12C24 5.37258 18.6274 0 12 0C5.37258 0 0 5.37258 0 12C0 18.6274 5.37258 24 12 24Z" fill="#CCDAEA" fill-opacity="0.5"/>
<path d="M17.7147 12C17.7147 15.1559 15.1563 17.7143 12.0004 17.7143C8.84451 17.7143 6.28613 15.1559 6.28613 12C6.28613 8.84408 8.84451 6.28571 12.0004 6.28571C15.1563 6.28571 17.7147 8.84408 17.7147 12Z" stroke="#899AAB" stroke-width="2"/>
<path fill-rule="evenodd" clip-rule="evenodd" d="M12.0004 13.7143C12.9472 13.7143 13.7147 12.9468 13.7147 12C13.7147 11.0532 12.9472 10.2857 12.0004 10.2857C11.0536 10.2857 10.2861 11.0532 10.2861 12C10.2861 12.9468 11.0536 13.7143 12.0004 13.7143Z" fill="#899AAB"/>
</svg>
