<svg width="23" height="23" viewBox="0 0 23 23" fill="none" xmlns="http://www.w3.org/2000/svg">
<path fill-rule="evenodd" clip-rule="evenodd" d="M11.7327 18.4715C11.587 18.3949 11.413 18.3949 11.2673 18.4715L5.59836 21.4518C5.23155 21.6447 4.80283 21.3332 4.87289 20.9247L5.95556 14.6122C5.98338 14.45 5.92961 14.2845 5.81177 14.1697L1.22547 9.69913C0.928716 9.40986 1.09247 8.90588 1.50258 8.84629L7.84068 7.92531C8.00353 7.90164 8.14432 7.79936 8.21715 7.65179L11.0516 1.90849C11.235 1.53687 11.765 1.53687 11.9484 1.90849L14.7829 7.65179C14.8557 7.79936 14.9965 7.90164 15.1593 7.92531L21.4974 8.84629C21.9075 8.90588 22.0713 9.40986 21.7745 9.69913L17.1882 14.1697C17.0704 14.2845 17.0166 14.45 17.0444 14.6122L18.1271 20.9247C18.1972 21.3332 17.7685 21.6447 17.4016 21.4518L11.7327 18.4715Z" stroke="white" stroke-width="2" stroke-linecap="round"/>
</svg>
