<svg width="22" height="24" viewBox="0 0 22 24" fill="#73E3FF" xmlns="http://www.w3.org/2000/svg">
    <path fill-rule="evenodd" clip-rule="evenodd"
          d="M3.5 5V2H19.5V22H3.5V19H1.5V23.5C1.5 23.7761 1.72386 24 2 24H21C21.2761 24 21.5 23.7761 21.5 23.5V0.5C21.5 0.223858 21.2761 0 21 0H2C1.72386 0 1.5 0.223857 1.5 0.5V5H3.5ZM3.5 11V13H1.5V11H3.5ZM12.2107 12.4607L11.7645 12.7243C11.4687 12.8991 11.1242 13 10.75 13C9.64543 13 8.75 12.1046 8.75 11C8.75 9.89543 9.64543 9 10.75 9C11.8546 9 12.75 9.89543 12.75 11C12.75 11.3742 12.6491 11.7187 12.4743 12.0145L12.2107 12.4607ZM14.75 11C14.75 11.7418 14.5481 12.4365 14.1962 13.032L16.4563 15.2921L16.4571 15.2929C16.8476 15.6834 16.8476 16.3166 16.4571 16.7071C16.0666 17.0976 15.4334 17.0976 15.0429 16.7071L15.0421 16.7063L12.782 14.4462C12.1865 14.7981 11.4918 15 10.75 15C8.54086 15 6.75 13.2091 6.75 11C6.75 8.79086 8.54086 7 10.75 7C12.9591 7 14.75 8.79086 14.75 11ZM0.5 8C0.5 7.44772 0.947715 7 1.5 7H3.5C4.05228 7 4.5 7.44772 4.5 8C4.5 8.55229 4.05228 9 3.5 9H1.5C0.947715 9 0.5 8.55229 0.5 8ZM1.5 15C0.947715 15 0.5 15.4477 0.5 16C0.5 16.5523 0.947715 17 1.5 17H3.5C4.05228 17 4.5 16.5523 4.5 16C4.5 15.4477 4.05228 15 3.5 15H1.5Z"
          stroke="none"
    />
</svg>
