<svg width="24" height="24" viewBox="0 0 24 24" fill="none" xmlns="http://www.w3.org/2000/svg">
<path d="M12 24C18.6274 24 24 18.6274 24 12C24 5.37258 18.6274 0 12 0C5.37258 0 0 5.37258 0 12C0 18.6274 5.37258 24 12 24Z" fill="#CCDAEA" fill-opacity="0.5"/>
<path fill-rule="evenodd" clip-rule="evenodd" d="M2.97754 4.08839C5.17682 1.58222 8.4036 0 12.0001 0C12.0001 0 11.186 0.492937 12.7288 1.32862C14.162 2.10496 13.6537 2.49291 13.3166 2.75026C13.2907 2.76997 13.2659 2.78891 13.2431 2.8072C12.9217 3.06436 12.3642 2.29294 12.0001 1.77872C11.6359 1.26436 10.072 0.471609 8.87193 0.900281C8.76131 0.939796 8.65215 0.978358 8.54525 1.01612C7.49249 1.38803 6.65933 1.68236 6.81482 2.04441C6.91534 2.27846 7.6657 2.1094 8.42438 1.93847C8.95815 1.81821 9.49604 1.69702 9.81463 1.71464C10.5861 1.75739 10.3289 2.22872 9.60046 2.78592C8.87193 3.34312 8.78605 4.02877 9.55752 4.4573C10.3289 4.88602 11.2716 4.92891 11.4861 4.6718C11.5463 4.59954 11.5423 4.41562 11.5376 4.20465C11.5257 3.66482 11.5098 2.94792 12.5576 3.4717C12.6847 3.53525 12.8099 3.59652 12.9316 3.65614L12.9317 3.65615C14.2059 4.27991 15.1101 4.72255 14.0148 5.70038L13.8922 5.80969C12.7233 6.85232 11.4419 7.99521 11.4004 8.65744C11.3787 9.00335 11.4881 9.31668 11.5687 9.54772C11.6479 9.77457 11.6994 9.92209 11.572 9.94322C11.3148 9.98588 11.0788 9.66473 10.9075 9.42886C10.7362 9.19313 9.94321 9.10753 9.55752 9.25739C9.17179 9.40725 8.44312 9.98588 8.85037 10.5431C9.10189 10.8872 9.41039 10.9207 9.74082 10.9565C9.94546 10.9786 10.1585 11.0017 10.3716 11.1001C10.9289 11.3573 11.4485 12.336 11.3418 12.5572C11.2351 12.7783 10.7601 12.4983 10.3716 11.743C10.1117 11.2377 9.69958 11.2933 9.3017 11.3471C9.1048 11.3737 8.9114 11.3998 8.74166 11.3573L8.72033 11.3519C8.21813 11.2262 7.83601 11.1305 7.32885 10.243C7.01911 9.701 6.50973 9.39407 6.05847 9.12217C5.76043 8.94258 5.48774 8.77827 5.31468 8.57161C4.41845 7.50142 4.21278 6.61856 4.07236 6.01578C4.0175 5.78029 3.97259 5.58755 3.90037 5.44308C3.64321 4.92867 2.97754 4.08839 2.97754 4.08839ZM18.9885 2.24395C17.8437 1.42238 16.5482 0.797251 15.1515 0.418126C15.1515 0.418126 14.5288 0.899954 15.1514 2.48574C15.6896 3.85606 16.3367 3.21023 16.8427 2.70521L16.8427 2.7052C16.9223 2.62576 16.9984 2.54981 17.07 2.48574C17.5971 2.01445 18.9885 2.24395 18.9885 2.24395ZM22.0705 5.47148C23.2911 7.35042 24.0001 9.59236 24.0001 12C24.0001 12 22.6287 12.5999 21.6431 12.4716C20.6575 12.3433 20.3144 10.6285 21.0002 9.38564C21.4182 8.62828 21.7884 8.55773 22.0313 8.51142C22.187 8.48175 22.2905 8.46203 22.3208 8.27784C22.3594 8.0433 22.1919 7.91327 21.998 7.76271C21.8021 7.61056 21.5791 7.43745 21.5145 7.11431C21.3859 6.47152 22.0705 5.47148 22.0705 5.47148ZM15.0858 12.8571C14.4429 12.2998 13.1572 12.1715 13.1572 12.1715C11.9358 11.882 11.4858 13.8 11.7429 14.7856C11.9016 15.3937 12.3376 15.7408 12.6986 16.0282C12.9228 16.2067 13.1181 16.3622 13.2001 16.5428C13.4144 17.0145 13.0716 18.9428 12.9431 19.5856C12.9178 19.7121 12.8759 19.8567 12.8302 20.0147C12.6434 20.6601 12.3921 21.5281 12.9431 22.2856C13.6289 23.2285 13.9287 22.4999 13.9287 22.4999C13.3715 22.1567 13.4573 21.6427 13.7144 20.7857C13.9208 20.0981 14.403 19.6863 14.8732 19.2847C14.9891 19.1858 15.1042 19.0874 15.2144 18.9857C15.7714 18.4714 16.9287 16.7571 17.5716 15.6856C18.2144 14.6141 17.7858 14.0571 16.8001 13.8429C15.9787 13.6644 15.7822 13.4858 15.3674 13.1087C15.2845 13.0333 15.1929 12.9499 15.0858 12.8571Z" fill="#899AAB"/>
<path d="M23 12C23 18.0751 18.0751 23 12 23C5.92487 23 1 18.0751 1 12C1 5.92487 5.92487 1 12 1C18.0751 1 23 5.92487 23 12Z" stroke="#E6EDF5" stroke-width="2"/>
</svg>
