<svg width="32" height="32" viewBox="0 0 32 32" fill="none" xmlns="http://www.w3.org/2000/svg">
<path fill-rule="evenodd" clip-rule="evenodd" d="M20.7782 6.94977C21.1687 6.55925 21.1687 5.92608 20.7782 5.53556L17.4142 2.1716L16 0.757385L14.5858 2.1716L11.2218 5.53556C10.8313 5.92608 10.8313 6.55925 11.2218 6.94977C11.6123 7.3403 12.2455 7.3403 12.636 6.94977L15 4.58579V17C15 17.5523 15.4477 18 16 18C16.5523 18 17 17.5523 17 17V4.58583L19.3639 6.94977C19.7545 7.3403 20.3876 7.3403 20.7782 6.94977ZM22 11H20V9H22C23.1046 9 24 9.89543 24 11V23C24 24.1046 23.1046 25 22 25H10C8.89543 25 8 24.1046 8 23V11C8 9.89543 8.89543 9 10 9H12V11H10V23H22V11Z" fill="#899AAB"/>
</svg>
