<?xml version="1.0" encoding="UTF-8"?>
<svg width="119px" height="22px" viewBox="0 0 119 22" version="1.1" xmlns="http://www.w3.org/2000/svg" xmlns:xlink="http://www.w3.org/1999/xlink">
    <!-- Generator: Sketch 61.2 (89653) - https://sketch.com -->
    <title>Logo - KD - 24</title>
    <desc>Created with Sketch.</desc>
    <g id="Symbols" stroke="none" stroke-width="1" fill="none" fill-rule="evenodd">
        <g id="Top-Navigation-Bar-/-Checkout" transform="translate(-121.000000, -23.000000)">
            <g id="Logo-/-KD-/-New-/-24px">
                <g transform="translate(120.000000, 22.000000)">
                    <g id="NEW-LOGO-KD-2020-ver-3-final-02">
                        <polygon id="Path" fill="#61A544" fill-rule="nonzero" points="1.2 1.728 5.208 1.728 5.208 14.088 9.648 8.952 14.568 8.952 9.408 14.808 14.712 21.96 9.648 21.96 5.256 15.384 5.208 15.384 5.208 21.96 1.2 21.96"></polygon>
                        <rect id="Rectangle" fill="#61A544" fill-rule="nonzero" x="15.336" y="1.728" width="4.008" height="20.232"></rect>
                        <path d="M20.712,4.8 C20.6449837,3.67935923 21.3637775,2.66199068 22.4424244,2.35078679 C23.5210712,2.0395829 24.6713336,2.51770401 25.2115662,3.50181562 C25.7517988,4.48592724 25.5376399,5.71305367 24.696,6.456 C24.0080132,7.06331117 23.0339384,7.22513759 22.1865393,6.87290543 C21.3391402,6.52067327 20.7667816,5.71605225 20.712,4.8 M21.024,8.904 L25.032,8.904 L25.032,21.912 L21.024,21.912 L21.024,8.904 Z" id="Shape" fill="#61A544" fill-rule="nonzero"></path>
                        <polygon id="Path" fill="#61A544" fill-rule="nonzero" points="26.664 1.728 30.672 1.728 30.672 14.088 35.112 8.952 40.032 8.952 34.872 14.808 40.176 21.96 35.112 21.96 30.72 15.384 30.672 15.384 30.672 21.96 26.664 21.96"></polygon>
                        <path d="M55.632,21.96 L51.936,21.96 L51.936,20.232 L51.936,20.232 C51.7542811,20.4935735 51.5450899,20.734948 51.312,20.952 C51.0342976,21.2028104 50.7282192,21.4202873 50.4,21.6 C50.0351129,21.8024828 49.6487071,21.9634852 49.248,22.08 C48.8275676,22.2063794 48.3910151,22.2710538 47.952,22.272 C47.0551031,22.2802655 46.1656267,22.1088985 45.336,21.768 C44.5322577,21.4742332 43.8030118,21.007188 43.2,20.4 C42.6273523,19.7834558 42.1863772,19.0566634 41.904,18.264 C41.5910811,17.3945331 41.4366362,16.4759923 41.448,15.552 C41.4411122,14.6636352 41.5789151,13.7800755 41.856,12.936 C42.169701,12.1334409 42.6249198,11.3937103 43.2,10.752 C43.7081125,10.1131375 44.3462111,9.58956939 45.072,9.216 C45.8152597,8.83708924 46.6377289,8.63969662 47.472,8.64 C48.2884016,8.62523565 49.1009615,8.75524522 49.872,9.024 C50.5834749,9.27500873 51.2025188,9.73510891 51.648,10.344 L51.648,10.344 L51.648,1.728 L55.656,1.728 L55.632,21.96 Z M51.936,15.456 C51.9812081,14.5768503 51.6795857,13.7150719 51.096,13.056 C49.7425519,11.7998422 47.6494481,11.7998422 46.296,13.056 C45.7124143,13.7150719 45.4107919,14.5768503 45.456,15.456 C45.4107919,16.3351497 45.7124143,17.1969281 46.296,17.856 C47.6494481,19.1121578 49.7425519,19.1121578 51.096,17.856 C51.6795857,17.1969281 51.9812081,16.3351497 51.936,15.456" id="Shape" fill="#3281C1" fill-rule="nonzero"></path>
                        <path d="M56.448,15.456 C56.4312201,14.491484 56.6193664,13.5343919 57,12.648 C57.3577115,11.8298625 57.8806485,11.0944824 58.536,10.488 C59.2338396,9.87240539 60.0507337,9.40677579 60.936,9.12 C62.7614811,8.47970149 64.7505189,8.47970149 66.576,9.12 C67.4612663,9.40677579 68.2781604,9.87240539 68.976,10.488 C69.6313515,11.0944824 70.1542885,11.8298625 70.512,12.648 C70.8926336,13.5343919 71.0807799,14.491484 71.064,15.456 C71.0807799,16.420516 70.8926336,17.3776081 70.512,18.264 C70.1548954,19.0824809 69.6318752,19.8179781 68.976,20.424 C68.2781604,21.0395946 67.4612663,21.5052242 66.576,21.792 C64.7505189,22.4322985 62.7614811,22.4322985 60.936,21.792 C60.0507337,21.5052242 59.2338396,21.0395946 58.536,20.424 C57.8801248,19.8179781 57.3571046,19.0824809 57,18.264 C56.6193664,17.3776081 56.4312201,16.420516 56.448,15.456 M60.456,15.456 C60.4107919,16.3351497 60.7124143,17.1969281 61.296,17.856 C62.6494481,19.1121578 64.7425519,19.1121578 66.096,17.856 C66.6795857,17.1969281 66.9812081,16.3351497 66.936,15.456 C66.9812081,14.5768503 66.6795857,13.7150719 66.096,13.056 C64.7425519,11.7998422 62.6494481,11.7998422 61.296,13.056 C60.7124143,13.7150719 60.4107919,14.5768503 60.456,15.456" id="Shape" fill="#3281C1" fill-rule="nonzero"></path>
                        <polygon id="Path" fill="#3281C1" fill-rule="nonzero" points="71.832 1.728 75.84 1.728 75.84 14.088 80.28 8.952 85.224 8.952 80.04 14.808 85.344 21.96 80.28 21.96 75.912 15.384 75.84 15.384 75.84 21.96 71.832 21.96"></polygon>
                        <path d="M95.256,12.168 L91.728,12.168 L91.728,16.488 C91.7080882,16.8156978 91.7080882,17.1443022 91.728,17.472 C91.7535653,17.7419359 91.8353161,18.0035386 91.968,18.24 C92.1011877,18.4652531 92.3030605,18.6418918 92.544,18.744 C92.8726573,18.8708505 93.2240784,18.9280586 93.576,18.912 L94.416,18.912 C94.7057515,18.8916925 94.9822486,18.7827694 95.208,18.6 L95.208,21.936 C94.757871,22.0943334 94.2906474,22.199056 93.816,22.248 C93.344362,22.2741439 92.871638,22.2741439 92.4,22.248 C91.7695251,22.2526335 91.1408525,22.1800944 90.528,22.032 C89.9934096,21.9057472 89.4881842,21.6775808 89.04,21.36 C88.6063977,21.0432773 88.259701,20.6222885 88.032,20.136 C87.7756673,19.5630287 87.6525818,18.9393958 87.672,18.312 L87.672,12.168 L83.688,12.168 L86.4,8.952 L87.624,8.952 L87.624,1.752 L91.632,1.752 L91.632,8.952 L95.16,8.952 L95.256,12.168 Z" id="Path" fill="#3281C1" fill-rule="nonzero"></path>
                        <path d="M108.504,19.704 C107.868766,20.5204558 107.045312,21.170985 106.104,21.6 C105.149358,22.0441725 104.108914,22.2735617 103.056,22.272 C102.091084,22.2802074 101.13232,22.1177051 100.224,21.792 C99.3387337,21.5052242 98.5218396,21.0395946 97.824,20.424 C97.1681248,19.8179781 96.6451046,19.0824809 96.288,18.264 C95.9073664,17.3776081 95.7192201,16.420516 95.736,15.456 C95.7192201,14.491484 95.9073664,13.5343919 96.288,12.648 C96.6457115,11.8298625 97.1686485,11.0944824 97.824,10.488 C98.5218396,9.87240539 99.3387337,9.40677579 100.224,9.12 C101.13232,8.79429492 102.091084,8.63179256 103.056,8.64 C103.927768,8.62592188 104.793298,8.78922935 105.6,9.12 C106.335329,9.42473429 106.991842,9.89249958 107.52,10.488 C108.066972,11.1198697 108.483018,11.8540694 108.744,12.648 C109.040676,13.5540569 109.186616,14.5026675 109.176,15.456 L109.176,16.8 L99.792,16.8 C99.9255085,17.510703 100.298141,18.1543418 100.848,18.624 C101.407037,19.0848585 102.116034,19.3240379 102.84,19.296 C103.430171,19.3191525 104.014204,19.1689726 104.52,18.864 C104.986155,18.56524 105.393004,18.182802 105.72,17.736 L108.504,19.704 Z M105.096,13.992 C105.112514,13.3492383 104.870427,12.7267291 104.424,12.264 C103.95194,11.7815638 103.298551,11.5202083 102.624,11.544 C102.221531,11.5370127 101.821717,11.6104479 101.448,11.76 C101.130007,11.8921949 100.837598,12.079012 100.584,12.312 C100.35088,12.5288514 100.163237,12.7899199 100.032,13.08 C99.9041401,13.3679994 99.8308974,13.6772463 99.816,13.992 L105.096,13.992 Z" id="Shape" fill="#3281C1" fill-rule="nonzero"></path>
                        <path d="M110.112,8.952 L114.12,8.952 L114.12,11.04 L114.12,11.04 C114.477942,10.3239775 115.00519,9.70610834 115.656,9.24 C116.321359,8.81696223 117.10021,8.60759386 117.888,8.64 L118.584,8.64 L119.232,8.64 L119.232,12.432 L118.392,12.24 L117.528,12.24 C116.90446,12.2087005 116.281686,12.3152277 115.704,12.552 C115.281495,12.7421778 114.923071,13.0505888 114.672,13.44 C114.415738,13.8562964 114.252034,14.3228516 114.192,14.808 C114.152632,15.3993455 114.152632,15.9926545 114.192,16.584 L114.192,22.008 L110.112,22.008 L110.112,8.952 Z" id="Path" fill="#3281C1" fill-rule="nonzero"></path>
                    </g>
                </g>
            </g>
        </g>
    </g>
</svg>